<svg xmlns="http://www.w3.org/2000/svg" width="900" height="366" viewBox="0 0 900 366" role="img">
<title>Distribusi log nilai kontrak</title>
<rect width="100%" height="100%" fill="#0f172a"/>
<text x="24" y="32" fill="#e2e8f0" font-family="Arial" font-size="20">Distribusi log nilai kontrak</text>
<text x="24" y="71" fill="#cbd5e1" font-family="Arial" font-size="13">10^7.8–10^8.4</text>
<rect x="260" y="54" width="560" height="24" fill="#38bdf8"/>
<text x="828" y="71" fill="#e2e8f0" font-family="Arial" font-size="13">437</text>
<text x="24" y="105" fill="#cbd5e1" font-family="Arial" font-size="13">10^8.4–10^8.9</text>
<rect x="260" y="88" width="503" height="24" fill="#38bdf8"/>
<text x="771" y="105" fill="#e2e8f0" font-family="Arial" font-size="13">393</text>
<text x="24" y="139" fill="#cbd5e1" font-family="Arial" font-size="13">10^8.9–10^9.4</text>
<rect x="260" y="122" width="266" height="24" fill="#38bdf8"/>
<text x="534" y="139" fill="#e2e8f0" font-family="Arial" font-size="13">208</text>
<text x="24" y="173" fill="#cbd5e1" font-family="Arial" font-size="13">10^9.4–10^10.0</text>
<rect x="260" y="156" width="148" height="24" fill="#38bdf8"/>
<text x="416" y="173" fill="#e2e8f0" font-family="Arial" font-size="13">116</text>
<text x="24" y="207" fill="#cbd5e1" font-family="Arial" font-size="13">10^10.0–10^10.5</text>
<rect x="260" y="190" width="93" height="24" fill="#38bdf8"/>
<text x="361" y="207" fill="#e2e8f0" font-family="Arial" font-size="13">73</text>
<text x="24" y="241" fill="#cbd5e1" font-family="Arial" font-size="13">10^10.5–10^11.0</text>
<rect x="260" y="224" width="23" height="24" fill="#38bdf8"/>
<text x="291" y="241" fill="#e2e8f0" font-family="Arial" font-size="13">18</text>
<text x="24" y="275" fill="#cbd5e1" font-family="Arial" font-size="13">10^11.0–10^11.6</text>
<rect x="260" y="258" width="34" height="24" fill="#38bdf8"/>
<text x="302" y="275" fill="#e2e8f0" font-family="Arial" font-size="13">27</text>
<text x="24" y="309" fill="#cbd5e1" font-family="Arial" font-size="13">10^11.6–10^12.1</text>
<rect x="260" y="292" width="5" height="24" fill="#38bdf8"/>
<text x="273" y="309" fill="#e2e8f0" font-family="Arial" font-size="13">4</text>
</svg>
