<svg xmlns="http://www.w3.org/2000/svg" width="900" height="434" viewBox="0 0 900 434" role="img">
<title>Top penyedia berdasarkan jumlah paket</title>
<rect width="100%" height="100%" fill="#0f172a"/>
<text x="24" y="32" fill="#e2e8f0" font-family="Arial" font-size="20">Top penyedia berdasarkan jumlah paket</text>
<text x="24" y="71" fill="#cbd5e1" font-family="Arial" font-size="13">PT. BUMI MADANI</text>
<rect x="260" y="54" width="560" height="24" fill="#38bdf8"/>
<text x="828" y="71" fill="#e2e8f0" font-family="Arial" font-size="13">38</text>
<text x="24" y="105" fill="#cbd5e1" font-family="Arial" font-size="13">Danureksa Sarana Cipta</text>
<rect x="260" y="88" width="456" height="24" fill="#38bdf8"/>
<text x="724" y="105" fill="#e2e8f0" font-family="Arial" font-size="13">31</text>
<text x="24" y="139" fill="#cbd5e1" font-family="Arial" font-size="13">PT. ALFRIZ AULIATAMA</text>
<rect x="260" y="122" width="427" height="24" fill="#38bdf8"/>
<text x="695" y="139" fill="#e2e8f0" font-family="Arial" font-size="13">29</text>
<text x="24" y="173" fill="#cbd5e1" font-family="Arial" font-size="13">PT. SEWUN INDO KONSULTAN</text>
<rect x="260" y="156" width="412" height="24" fill="#38bdf8"/>
<text x="680" y="173" fill="#e2e8f0" font-family="Arial" font-size="13">28</text>
<text x="24" y="207" fill="#cbd5e1" font-family="Arial" font-size="13">PT. DAYACIPTA KREASI BERSAMA</text>
<rect x="260" y="190" width="280" height="24" fill="#38bdf8"/>
<text x="548" y="207" fill="#e2e8f0" font-family="Arial" font-size="13">19</text>
<text x="24" y="241" fill="#cbd5e1" font-family="Arial" font-size="13">PT.BALQIS MANDIRI KONSULTAN</text>
<rect x="260" y="224" width="235" height="24" fill="#38bdf8"/>
<text x="503" y="241" fill="#e2e8f0" font-family="Arial" font-size="13">16</text>
<text x="24" y="275" fill="#cbd5e1" font-family="Arial" font-size="13">PT. KOMSHA AKUR CONSULT</text>
<rect x="260" y="258" width="235" height="24" fill="#38bdf8"/>
<text x="503" y="275" fill="#e2e8f0" font-family="Arial" font-size="13">16</text>
<text x="24" y="309" fill="#cbd5e1" font-family="Arial" font-size="13">PT. ALOCITA MANDIRI</text>
<rect x="260" y="292" width="206" height="24" fill="#38bdf8"/>
<text x="474" y="309" fill="#e2e8f0" font-family="Arial" font-size="13">14</text>
<text x="24" y="343" fill="#cbd5e1" font-family="Arial" font-size="13">PT. GRANITINDO CIPTA SEJATI</text>
<rect x="260" y="326" width="206" height="24" fill="#38bdf8"/>
<text x="474" y="343" fill="#e2e8f0" font-family="Arial" font-size="13">14</text>
<text x="24" y="377" fill="#cbd5e1" font-family="Arial" font-size="13">PT. BAYU BERLIAN MANDIRI</text>
<rect x="260" y="360" width="191" height="24" fill="#38bdf8"/>
<text x="459" y="377" fill="#e2e8f0" font-family="Arial" font-size="13">13</text>
</svg>
