<svg xmlns="http://www.w3.org/2000/svg" width="720" height="320" viewBox="0 0 720 320">
<rect width="100%" height="100%" fill="#ffffff" />
<line x1="40" y1="280" x2="680" y2="280" stroke="#111827" />
<line x1="40" y1="40" x2="40" y2="280" stroke="#111827" />
<rect x="40.00" y="174.78" width="50.33" height="105.22" fill="#2563eb" />
<rect x="93.33" y="149.36" width="50.33" height="130.64" fill="#2563eb" />
<rect x="146.67" y="40.00" width="50.33" height="240.00" fill="#2563eb" />
<rect x="200.00" y="145.22" width="50.33" height="134.78" fill="#2563eb" />
<rect x="253.33" y="201.38" width="50.33" height="78.62" fill="#2563eb" />
<rect x="306.67" y="253.40" width="50.33" height="26.60" fill="#2563eb" />
<rect x="360.00" y="268.18" width="50.33" height="11.82" fill="#2563eb" />
<rect x="413.33" y="269.36" width="50.33" height="10.64" fill="#2563eb" />
<rect x="466.67" y="272.91" width="50.33" height="7.09" fill="#2563eb" />
<rect x="520.00" y="275.86" width="50.33" height="4.14" fill="#2563eb" />
<rect x="573.33" y="275.86" width="50.33" height="4.14" fill="#2563eb" />
<rect x="626.67" y="279.41" width="50.33" height="0.59" fill="#2563eb" />
<text x="40" y="24" font-family="Arial" font-size="16" fill="#111827">Isolation Forest score distribution</text>
<text x="40" y="310" font-family="Arial" font-size="12" fill="#374151">score range 0.3588 to 0.6824</text>
</svg>
